# Blender v2.75 (sub 0) OBJ File: 'untitled.blend'
# www.blender.org
mtllib WhiteWood2.mtl
o Body
v -4.579378 2.231343 1.206542
v -4.585802 2.235817 1.210709
v -3.939723 2.235817 1.856429
v -3.935819 2.231343 1.850167
v -4.586053 2.235817 -0.132956
v -4.579504 2.231342 -0.128788
v -3.936070 2.231342 -0.772883
v -3.940333 2.235817 -0.779034
v 3.869610 0.491099 -1.613671
v 3.863628 0.486625 -1.616508
v 3.220268 0.486625 -0.973065
v 3.223890 0.491100 -0.967593
v 3.869358 0.491099 -2.957337
v 3.863502 0.486625 -2.954500
v 3.223279 0.491106 -3.603057
v 3.220016 0.486631 -3.596820
v 3.869610 2.235817 -1.613672
v 3.863628 2.231342 -1.616508
v 3.220268 2.231342 -0.973065
v 3.223890 2.235817 -0.967594
v 3.869358 2.235816 -2.957335
v 3.863502 2.231344 -2.954499
v 3.223279 2.235816 -3.603055
v 3.220016 2.231344 -3.596821
v 0.993817 2.231342 -0.973414
v -0.431876 2.235817 -0.778230
v -0.425944 2.231342 -0.772078
v 2.197177 2.231342 -0.772078
v 2.203109 2.235817 -0.778230
v -2.007403 2.231343 1.850167
v -4.572955 2.218646 1.202375
v -4.572955 2.218646 -0.124621
v 3.857646 0.473929 -1.619345
v 1.460940 2.218646 -2.166317
v 1.454841 2.231342 -2.159853
v 1.791488 2.231342 -2.159853
v 3.216753 2.218647 -3.590584
v 3.216753 0.473935 -3.590584
v 3.857646 0.473928 -2.951663
v -0.425944 0.486626 2.824253
v -0.420012 0.473929 2.818101
v -0.425944 0.486625 -0.772078
v -0.431876 2.235816 2.830405
v -0.425944 2.231343 2.824252
v -0.431876 0.491100 2.830405
v -0.431876 0.491100 -0.778230
v -3.931807 2.218646 -0.766731
v -3.931914 2.218646 1.843906
v 0.999916 0.473929 -0.978431
v 1.000022 0.473928 -2.071911
v 0.993870 0.486625 -2.077844
v 1.791488 0.486625 -2.159854
v -2.007349 2.231342 -0.772883
v -2.013447 2.218646 -0.766731
v -2.013555 2.218646 1.843906
v 3.216647 2.218646 -0.978538
v -2.001251 2.235817 1.856429
v -2.001251 2.235817 -0.779034
v 3.857646 2.218647 -2.951663
v 3.857646 2.218646 -1.619345
v 0.993817 0.486625 -0.973414
v 0.987719 0.491100 -0.968398
v 2.191245 0.473929 2.818101
v 2.197177 0.486626 2.824253
v 1.454841 0.486625 -2.159854
v 1.460940 0.473928 -2.166317
v 1.461046 0.473935 -3.590584
v 1.454895 0.486631 -3.596820
v 2.191245 2.218646 -0.765927
v 1.791541 2.231342 -2.077842
v 0.987719 2.235817 -2.083776
v 1.797693 0.473928 -2.071912
v 2.203109 0.491100 2.830405
v 0.993870 2.231342 -2.077842
v 0.987719 2.235817 -0.968398
v 0.999916 2.218646 -0.978431
v -0.420012 0.473929 -0.765926
v 2.191245 0.473929 -0.765926
v 2.197177 0.486625 -0.772078
v 1.448743 0.491099 -2.153392
v 1.785389 0.491099 -2.153392
v 1.791541 0.486625 -2.077844
v 1.785389 0.491099 -2.083776
v 0.987719 0.491099 -2.083776
v 3.216647 0.473929 -0.978537
v 2.191245 2.218647 2.818101
v -0.420012 2.218647 2.818101
v -0.420012 2.218646 -0.765927
v 2.197177 2.231343 2.824252
v 1.461046 2.218647 -3.590584
v 1.454895 2.231344 -3.596821
v 1.785389 2.235817 -2.153392
v 1.785389 2.235817 -2.083776
v 1.797586 0.473928 -2.166317
v 1.448743 0.491106 -3.603057
v 1.000022 2.218646 -2.071912
v 1.797693 2.218646 -2.071912
v 1.797586 2.218646 -2.166317
v 1.448743 2.235817 -2.153392
v 1.448743 2.235816 -3.603055
v 2.203109 2.235816 2.830405
v 2.203109 0.491100 -0.778230
v 1.978287 0.491100 -0.968041
v 1.978287 0.486625 -0.973259
v 1.978287 0.473929 -0.978236
v 1.098850 0.491100 -0.968358
v 1.098850 0.486625 -0.973397
v 1.098850 0.473929 -0.978236
v 1.098850 0.473929 -0.766522
v 1.098850 0.486625 -0.772078
v 1.098850 0.491100 -0.778230
v 1.978287 0.473929 -0.766522
v 1.978287 0.486625 -0.772078
v 1.978287 0.491100 -0.778230
v 1.000279 0.473929 -1.084914
v 0.987719 0.491100 -1.084914
v 0.993823 0.486625 -1.084914
v 1.000279 0.473929 -1.646634
v 0.987719 0.491100 -1.646634
v 0.993850 0.486625 -1.646634
v -0.207055 0.473929 -0.766522
v -0.207055 0.486625 -0.772078
v -0.207055 0.491100 -0.778230
v 0.672383 0.473929 -0.766522
v 0.672383 0.486625 -0.772078
v 0.672383 0.491100 -0.778230
v 1.000279 2.218646 -1.084914
v 0.993822 2.231342 -1.084914
v 0.987719 2.235817 -1.084914
v 1.000279 2.218646 -1.646634
v 0.993849 2.231342 -1.646634
v 0.987719 2.235817 -1.646634
v -0.225274 2.231342 -0.772078
v -0.225274 2.235817 -0.778230
v -0.225274 2.218646 -0.765927
v 0.336446 2.231342 -0.772078
v 0.336446 2.235817 -0.778230
v 0.336446 2.218646 -0.765927
v -2.013093 2.218646 -0.326388
v -2.001251 2.235817 -0.326388
v -2.007358 2.231342 -0.326388
v -2.013093 2.218646 0.235332
v -2.007370 2.231343 0.235332
v -2.001251 2.235817 0.235332
v 0.993870 0.486625 -2.077844
v 0.987719 0.491099 -2.083776
v -3.931914 2.218646 1.843906
v 1.461046 2.218647 -3.590584
v 1.454895 2.231344 -3.596821
v 3.857646 0.473928 -2.951663
v 1.448743 2.235816 -3.603055
v 3.216647 0.473929 -0.978537
v 1.791541 0.486625 -2.077844
v 1.785389 0.491099 -2.083776
v 2.197177 2.231343 2.824252
v 2.203109 2.235816 2.830405
v -0.431876 2.235817 -0.778230
v -0.425944 2.231342 -0.772078
v 1.454841 0.486625 -2.159854
v 1.460940 0.473928 -2.166317
v 3.857646 0.473929 -1.619345
v 2.197177 0.486625 -0.772078
v 2.203109 0.491100 -0.778230
v -0.425944 0.486625 -0.772078
v -0.431876 0.491100 -0.778230
v 2.197177 2.231342 -0.772078
v 2.191245 2.218646 -0.765927
v 3.857646 2.218647 -2.951663
v 1.460940 2.218646 -2.166317
v 1.454841 2.231342 -2.159853
v 3.216753 2.218647 -3.590584
v -0.425944 0.486626 2.824253
v -0.420012 0.473929 2.818101
v 2.191245 0.473929 -0.765926
v -4.572955 2.218646 -0.124621
v 3.857646 2.218646 -1.619345
v 1.791541 2.231342 -2.077842
v 1.797693 2.218646 -2.071912
v -0.425944 2.231343 2.824252
v -0.420012 2.218647 2.818101
v 2.203109 2.235817 -0.778230
v -2.007349 2.231342 -0.772883
v -2.013447 2.218646 -0.766731
v 2.191245 0.473929 2.818101
v 2.197177 0.486626 2.824253
v 1.461046 0.473935 -3.590584
v 1.454895 0.486631 -3.596820
v 3.216753 0.473935 -3.590584
v 0.993817 0.486625 -0.973414
v 0.987719 0.491100 -0.968398
v -0.431876 2.235816 2.830405
v -2.001251 2.235817 -0.779034
v 1.000022 0.473928 -2.071911
v -3.931807 2.218646 -0.766731
v -4.572955 2.218646 1.202375
v 1.448743 0.491106 -3.603057
v -0.431876 0.491100 2.830405
v 3.216647 2.218646 -0.978538
v 1.797693 0.473928 -2.071912
v 0.993817 2.231342 -0.973414
v 0.987719 2.235817 -0.968398
v -0.420012 0.473929 -0.765926
v -2.007403 2.231343 1.850167
v -2.001251 2.235817 1.856429
v -0.420012 2.218646 -0.765927
v 1.448743 0.491099 -2.153392
v 1.785389 2.235817 -2.083776
v 1.791488 2.231342 -2.159853
v 1.785389 2.235817 -2.153392
v 2.203109 0.491100 2.830405
v 1.448743 2.235817 -2.153392
v -2.013555 2.218646 1.843906
v 1.797586 2.218646 -2.166317
v 0.993870 2.231342 -2.077842
v 1.000022 2.218646 -2.071912
v 0.999916 0.473929 -0.978431
v 0.987719 2.235817 -2.083776
v 0.999916 2.218646 -0.978431
v 2.191245 2.218647 2.818101
v 1.791488 0.486625 -2.159854
v 1.797586 0.473928 -2.166317
v 1.785389 0.491099 -2.153392
vt 0.988507 0.000452
vt 0.992751 0.000000
vt 0.992751 0.253122
vt 0.988676 0.252670
vt 0.827545 0.000000
vt 0.827545 0.372347
vt 0.823891 0.371199
vt 0.823820 0.001161
vt 0.310813 0.408790
vt 0.306500 0.408324
vt 0.306622 0.156031
vt 0.310813 0.155661
vt 0.947435 0.252531
vt 0.943631 0.251923
vt 0.944279 0.001149
vt 0.947759 0.000583
vt 0.861895 0.000000
vt 0.861895 0.372347
vt 0.858591 0.371555
vt 0.858520 0.000780
vt 0.951240 0.000000
vt 0.951240 0.253122
vt 0.868619 0.000000
vt 0.868619 0.372347
vt 0.865315 0.371555
vt 0.865244 0.000780
vt 0.321898 0.155661
vt 0.321898 0.408783
vt 0.318093 0.408192
vt 0.318417 0.156244
vt 0.629809 0.182547
vt 0.626311 0.183362
vt 0.626311 0.001637
vt 0.629809 0.000000
vt 0.820211 0.370062
vt 0.820070 0.002334
vt 0.374900 0.000000
vt 0.378275 0.001699
vt 0.378275 0.998289
vt 0.374900 1.000000
vt 0.862037 0.370752
vt 0.861895 0.001549
vt 0.368123 0.154920
vt 0.364632 0.155936
vt 0.364658 0.001690
vt 0.368123 0.000000
vt 0.809125 0.399936
vt 0.805630 0.398163
vt 0.805570 0.003480
vt 0.809095 0.001734
vt 0.356722 0.619680
vt 0.353154 0.618676
vt 0.353258 0.001690
vt 0.356722 0.000000
vt 0.761509 0.491746
vt 0.761509 0.000000
vt 0.765056 0.001711
vt 0.765056 0.490849
vt 0.418537 0.003410
vt 0.418537 0.535019
vt 0.410524 0.536101
vt 0.410524 0.001705
vt 0.754489 0.534954
vt 0.754490 0.003353
vt 0.758011 0.001683
vt 0.758011 0.536155
vt 0.768625 0.003436
vt 0.768625 0.489963
vt 0.406776 0.537182
vt 0.406776 0.000000
vt 0.772195 0.000897
vt 0.772195 0.490034
vt 0.768625 0.488310
vt 0.768625 0.001782
vt 0.107300 0.252191
vt 0.107300 0.361266
vt 0.099241 0.363242
vt 0.099241 0.254167
vt 0.761509 0.537343
vt 0.314289 0.407584
vt 0.314938 0.156810
vt 0.381676 0.003386
vt 0.381676 0.996567
vt 0.095447 0.365218
vt 0.095447 0.256143
vt 0.345321 0.617672
vt 0.345527 0.003379
vt 0.371498 0.001699
vt 0.371498 0.998289
vt 0.368123 1.000000
vt 0.302153 0.407856
vt 0.302396 0.156400
vt 0.022390 0.243982
vt 0.030740 0.243704
vt 0.030740 0.435916
vt 0.022480 0.435458
vt 0.902795 0.079066
vt 0.902780 0.003311
vt 0.906305 0.001650
vt 0.906312 0.078163
vt 0.057321 0.245368
vt 0.057343 0.268094
vt 0.053870 0.266311
vt 0.053825 0.247020
vt 0.775741 0.000000
vt 0.775741 0.491746
vt 0.640188 0.365170
vt 0.640203 0.728611
vt 0.636788 0.726889
vt 0.636757 0.365168
vt 0.643644 0.365161
vt 0.643644 0.730322
vt 0.855311 0.370752
vt 0.855170 0.001549
vt 0.391692 0.001711
vt 0.395014 0.003433
vt 0.395014 0.996614
vt 0.391692 0.998301
vt 0.622789 0.184165
vt 0.622789 0.003262
vt 0.117445 0.245416
vt 0.117445 0.466460
vt 0.114071 0.464749
vt 0.114071 0.243704
vt 0.060843 0.243704
vt 0.060843 0.269866
vt 0.333610 0.000000
vt 0.337332 0.001644
vt 0.337332 0.728554
vt 0.333610 0.730198
vt 0.913338 0.078163
vt 0.913330 0.001650
vt 0.916830 0.000000
vt 0.916830 0.077271
vt 0.909820 0.079066
vt 0.909805 0.003311
vt 0.619268 0.546825
vt 0.622789 0.545970
vt 0.622789 0.726873
vt 0.619268 0.728550
vt 0.345321 0.003288
vt 0.345321 0.726910
vt 0.087388 0.254167
vt 0.087388 0.363242
vt 0.083594 0.365217
vt 0.083594 0.256142
vt 0.110674 0.245416
vt 0.110674 0.466460
vt 0.107300 0.464749
vt 0.107300 0.243703
vt 0.909805 0.000000
vt 0.909805 0.077271
vt 0.356876 0.156952
vt 0.356928 0.003379
vt 0.385023 0.001711
vt 0.388345 0.003433
vt 0.388345 0.996614
vt 0.385024 0.998301
vt 0.374900 0.003386
vt 0.374899 0.996567
vt 0.325621 0.001644
vt 0.333610 0.003288
vt 0.333609 0.726910
vt 0.325621 0.728554
vt 0.802101 0.399936
vt 0.798605 0.398163
vt 0.798545 0.003480
vt 0.802070 0.001734
vt 0.050304 0.245368
vt 0.050326 0.268094
vt 0.046852 0.266311
vt 0.046808 0.247019
vt 0.114071 0.247140
vt 0.114071 0.468184
vt 0.095447 0.252191
vt 0.095447 0.361266
vt 0.812595 0.401721
vt 0.812595 0.000000
vt 0.120842 0.247140
vt 0.120842 0.468185
vt 0.053825 0.243704
vt 0.053825 0.269866
vt 0.805570 0.401721
vt 0.805570 0.000000
vt 0.321898 0.000000
vt 0.321898 0.730198
vt 0.381676 0.000000
vt 0.381676 1.000000
vt 0.388345 0.000000
vt 0.388345 1.000000
vt 0.615770 0.547641
vt 0.615770 0.730187
vt 0.364555 0.618676
vt 0.356722 0.617672
vt 0.356825 0.310526
vt 0.364606 0.310183
vt 0.368123 0.619680
vt 0.368123 0.309840
vt 0.615769 0.273821
vt 0.619268 0.274238
vt 0.619268 0.365101
vt 0.615770 0.365094
vt 0.622789 0.274616
vt 0.622789 0.365067
vt 0.906335 0.307702
vt 0.906320 0.154676
vt 0.909805 0.154543
vt 0.909805 0.309086
vt 0.902840 0.306329
vt 0.902810 0.154820
vt 0.615769 0.000001
vt 0.619268 0.001651
vt 0.619268 0.183376
vt 0.615769 0.182548
vt 0.913361 0.307702
vt 0.913346 0.154676
vt 0.916830 0.154543
vt 0.916830 0.309086
vt 0.909865 0.306329
vt 0.909835 0.154820
vt 0.629809 0.730187
vt 0.626311 0.728536
vt 0.626311 0.365086
vt 0.629809 0.365093
vt 0.643645 0.000000
vt 0.643645 0.182581
vt 0.640180 0.183450
vt 0.640173 0.001729
vt 0.636742 0.184308
vt 0.636727 0.003447
vn 0.629100 0.735600 -0.251400
vn 0.465700 0.859300 -0.211700
vn 0.209200 0.855500 -0.473700
vn 0.251600 0.729800 -0.635700
vn 0.463500 0.861400 0.207800
vn 0.626700 0.738400 0.249100
vn 0.249600 0.729600 0.636800
vn 0.212800 0.856500 0.470300
vn -0.515700 0.829000 -0.216200
vn -0.663800 0.697500 -0.269900
vn -0.269200 0.678800 -0.683200
vn -0.235700 0.817700 -0.525200
vn -0.512700 0.831200 0.215100
vn -0.662000 0.699800 0.268500
vn -0.219100 0.837500 0.500500
vn -0.267200 0.708900 0.652800
vn -0.515800 0.829000 -0.216200
vn -0.269100 0.676800 -0.685200
vn -0.235800 0.815300 -0.528800
vn -0.661900 0.699800 0.268500
vn -0.219100 0.837600 0.500400
vn -0.267100 0.708900 0.652700
vn 0.000000 0.808700 0.588200
vn 0.000000 0.641600 0.767100
vn 0.000000 0.699200 0.714900
vn 0.890500 0.454900 -0.000000
vn -0.630000 0.451900 0.631600
vn 0.602200 0.798300 0.000000
vn 0.724100 0.689700 0.000000
vn -0.906400 0.422500 0.000000
vn 0.000200 0.747000 -0.664800
vn 0.000600 0.570400 -0.821400
vn 0.000500 0.634600 -0.772900
vn 0.712500 0.701700 0.000000
vn 0.900700 0.434500 0.000100
vn 0.714200 0.700000 0.000000
vn 0.000100 0.650600 -0.759400
vn 0.000200 0.760700 -0.649100
vn 0.000000 0.812500 0.583000
vn 0.000000 0.704900 0.709300
vn 0.000000 0.442300 -0.896900
vn 0.000000 0.706200 -0.708000
vn 0.000000 0.436100 0.899900
vn 0.000000 0.700400 0.713800
vn 0.000000 0.440900 0.897600
vn 0.000000 0.813700 -0.581300
vn 0.000000 0.705000 0.709200
vn -0.632700 0.446400 -0.632800
vn 0.000000 0.453700 -0.891100
vn 0.000000 0.715200 -0.699000
vn 0.000000 0.585300 -0.810800
vn 0.000000 0.808600 0.588300
vn 0.906000 0.423300 0.000000
vn 0.000000 0.822100 -0.569400
vn 0.000100 0.381800 -0.924200
vn 0.602100 0.798400 0.000000
vn 0.609800 0.507100 0.609100
vn 0.612300 0.500400 -0.612100
vn 0.896100 0.443900 -0.000200
vn 0.713200 0.701000 -0.000100
vn 0.764500 0.644600 -0.000100
vn 0.823800 0.566900 -0.000600
vn 0.827700 0.561200 -0.000600
vn 0.589800 0.807500 -0.000200
vn 0.000000 0.812500 0.582900
vn -0.773100 0.634300 0.000200
vn -0.718500 0.695500 0.000100
vn -0.906400 0.422400 0.000400
vn -0.591300 0.806400 -0.000000
vn -0.906300 0.422500 0.000000
vn -0.724100 0.689700 0.000000
vn -0.906000 0.423300 0.000000
vn 0.000000 0.436000 0.899900
vn 0.000000 0.689700 0.724100
vn 0.000000 0.552300 0.833700
vn 0.000000 0.798400 0.602100
vn 0.900700 0.434500 -0.000800
vn 0.000000 0.808700 -0.588200
vn 0.000000 0.699300 -0.714800
vn 0.713200 0.700900 -0.000100
vn 0.588900 0.808200 0.000000
vn -0.000600 0.634300 0.773100
vn -0.001300 0.419000 0.908000
vn -0.000400 0.694700 0.719300
vn 0.000000 0.436000 -0.899900
vn 0.000000 0.715200 -0.698900
vn 0.000000 0.822200 -0.569200
vn 0.000000 0.552300 0.833600
vn 0.001000 0.362100 -0.932200
vn 0.000000 0.699400 -0.714700
vn 0.714100 0.700000 0.000000
vn 0.823800 0.566800 -0.000600
vn 0.589900 0.807500 -0.000200
vn 0.000000 0.423300 0.906000
vn 0.000000 0.453600 -0.891200
vn 0.589900 0.807500 0.000000
vn 0.000000 0.423200 0.906000
vn 0.589800 0.807600 0.000000
vn 0.000000 0.808900 -0.588000
vn -0.602100 0.798400 0.000000
vn -0.602200 0.798300 0.000000
vn -0.000000 0.380500 -0.924800
vn 0.000100 0.590800 -0.806800
vn 0.000200 0.766700 -0.642000
vn 0.000000 0.626600 0.779300
vn 0.000000 0.400900 0.916100
vn 0.721200 0.692700 0.000600
vn 0.765900 0.643000 0.000800
vn 0.591500 0.806300 0.000000
vn 0.896500 0.443000 0.001500
vn 0.000400 0.694700 0.719300
vn 0.000600 0.634300 0.773100
vn 0.001300 0.419000 0.908000
vn 0.765800 0.643000 0.000800
vn 0.000000 0.699300 0.714900
vn -0.589200 0.808000 -0.000000
vn -0.771800 0.635800 -0.000100
vn -0.716300 0.697700 -0.000100
vn -0.905800 0.423600 -0.000100
usemtl Doors2
s 1
f 1/1/1 2/2/2 3/3/3 4/4/4
f 5/5/5 2/6/2 1/7/1 6/8/6
f 5/9/5 6/10/6 7/11/7 8/12/8
f 9/13/9 10/14/10 11/15/11 12/16/12
f 9/17/9 13/18/13 14/19/14 10/20/10
f 13/21/13 15/22/15 16/13/16 14/16/14
f 17/22/17 18/13/10 19/16/18 20/21/19
f 17/23/17 21/24/13 22/25/20 18/26/10
f 21/27/13 23/28/21 24/29/22 22/30/20
f 137/31/23 136/32/24 166/33/25 181/34/23
f 6/8/6 1/7/1 195/35/26 175/36/26
f 14/16/14 16/13/16 188/14/27 150/15/27
f 197/37/28 172/38/29 164/39/29 165/40/28
f 18/26/10 22/25/20 168/41/30 176/42/30
f 106/43/31 107/44/32 189/45/33 190/46/31
f 159/47/34 160/48/35 186/49/35 187/50/36
f 20/51/19 19/52/18 200/53/37 201/54/38
f 15/55/15 196/56/39 68/57/40 16/58/16
f 55/59/41 147/60/41 4/61/4 203/62/42
f 194/63/43 183/64/43 182/65/44 7/66/7
f 16/58/16 68/57/40 67/67/45 38/68/45
f 203/62/42 4/61/4 3/69/3 204/70/46
f 24/71/22 149/72/47 148/73/45 171/74/45
f 10/22/10 161/13/48 152/16/48 11/21/11
f 213/75/49 169/76/49 170/77/50 208/78/51
f 7/66/7 182/65/44 58/56/52 8/79/8
f 22/30/20 24/29/22 37/80/27 59/81/27
f 172/38/29 173/82/53 202/83/53 164/39/29
f 208/78/51 170/77/50 99/84/54 92/85/54
f 19/52/18 198/86/55 218/87/55 200/53/37
f 191/46/56 179/88/29 158/89/29 157/90/56
f 6/10/6 32/91/57 47/92/57 7/11/7
f 31/93/58 1/94/1 4/95/4 48/96/58
f 118/97/59 193/98/59 51/99/60 120/100/61
f 153/101/62 220/102/63 81/103/64 154/104/64
f 23/105/21 151/106/65 149/72/47 24/71/22
f 141/107/66 53/108/67 54/109/68 139/110/68
f 18/15/10 60/16/48 56/13/48 19/14/18
f 140/111/69 192/112/69 53/108/67 141/107/66
f 10/20/10 14/19/14 39/113/70 33/114/70
f 162/115/71 174/116/72 184/117/72 185/118/71
f 136/32/24 138/119/73 167/120/73 166/33/25
f 74/121/74 177/122/75 93/123/76 217/124/76
f 199/125/77 94/126/77 220/102/63 153/101/62
f 73/127/78 64/128/79 40/129/79 45/130/78
f 131/131/61 214/132/80 71/133/81 132/134/81
f 130/135/59 96/136/59 214/132/80 131/131/61
f 113/137/82 112/138/83 78/139/83 79/140/84
f 64/128/79 63/141/85 41/142/85 40/129/79
f 52/143/51 65/144/86 206/145/87 222/146/87
f 145/147/74 82/148/88 83/149/76 146/150/76
f 120/100/61 51/99/60 84/151/81 119/152/81
f 107/44/32 108/153/89 216/154/89 189/45/33
f 28/155/71 69/156/72 219/157/72 89/158/71
f 179/88/29 180/159/53 205/160/53 158/89/29
f 155/161/90 86/162/85 87/163/85 44/164/90
f 35/165/34 34/166/35 90/167/35 91/168/91
f 70/169/92 36/170/63 209/171/93 207/172/93
f 50/173/94 72/174/94 82/148/88 145/147/74
f 221/175/95 66/176/95 65/144/86 52/143/51
f 80/177/96 159/47/34 187/50/36 95/178/96
f 215/179/97 178/180/97 177/122/75 74/121/74
f 97/181/77 98/182/77 36/170/63 70/169/92
f 211/183/98 35/165/34 91/168/91 100/184/98
f 156/185/99 155/161/90 44/164/90 43/186/99
f 29/187/100 28/155/71 89/158/71 101/188/100
f 163/189/101 162/115/71 185/118/71 210/190/101
f 114/191/23 113/137/82 79/140/84 102/192/23
f 11/193/11 85/194/102 105/195/102 104/196/103
f 12/197/12 11/193/11 104/196/103 103/198/104
f 126/199/23 125/200/105 110/201/105 111/202/23
f 125/200/105 124/203/106 109/204/106 110/201/105
f 61/205/107 117/206/108 116/207/109 62/208/109
f 49/209/110 115/210/110 117/206/108 61/205/107
f 46/211/23 42/212/111 122/213/112 123/214/23
f 42/212/111 77/120/113 121/119/113 122/213/112
f 25/215/107 128/216/114 129/217/109 75/218/109
f 76/219/110 127/220/110 128/216/114 25/215/107
f 26/221/23 27/222/115 133/223/24 134/224/23
f 27/222/115 88/139/73 135/204/73 133/223/24
f 57/225/116 144/226/116 143/227/117 30/228/118
f 30/228/118 143/227/117 142/229/119 212/230/119
